PathFileType	4	(X/Y/Z)	D:\TRACE\v60_Jaco2_6-2-23\BothDRS_Motion3_5-v60.trc
DataRate	CameraRate	NumFrames	NumMarkers	Units	OrigDataRate	OrigDataStartFrame	OrigNumFrames
100.00	100.00	      17	9	mm	100.00	3501	      7000
Frame#	Time	front left toe			Front right toe			aft left toe			aft right toe			Arm			FL body			FR body			AL Body			AR Body			
		X1	Y1	Z1	X2	Y2	Z2	X3	Y3	Z3	X4	Y4	Z4	X5	Y5	Z5	X6	Y6	Z6	X7	Y7	Z7	X8	Y8	Z8	X9	Y9	Z9	

3501	35.000	-92.79044	13.04099	-33.75860	286.24310	95.53011	-52.59011	-94.10782	86.98701	561.79272	269.92770	8.55791	596.34302	165.61804	1127.19910	-370.75595	29.21402	521.67853	-213.56926	187.36261	515.22131	-208.43880	8.36797	546.15552	730.77075	157.75786	530.66559	735.01892	
3502	35.010	-92.80615	13.02917	-33.79140	286.48947	106.41801	-52.59212	-95.18070	97.65081	561.73029	269.98941	8.79118	596.29767	165.39088	1126.02417	-371.98004	29.03868	521.83417	-213.86443	187.25412	515.21875	-208.78197	8.77284	545.89099	730.47876	157.90216	530.24207	734.87732	
3503	35.020	-92.83858	12.99478	-33.81023	287.23105	116.90765	-52.30247	-95.33700	107.77282	561.70850	269.94952	8.84104	596.19995	164.88730	1124.60938	-373.43906	29.03504	521.72369	-213.97801	187.77728	514.95996	-209.21243	9.22451	545.81421	730.28149	158.37997	530.20496	734.39734	
3504	35.030	-92.86191	12.79204	-33.93201	288.06116	125.84521	-51.94152	-94.85648	117.07097	561.65662	270.19675	9.02443	596.17004	164.86143	1123.31787	-374.51895	28.98173	521.24451	-214.35538	187.65390	514.68970	-209.55692	9.46019	545.99463	729.92773	158.03339	529.41266	732.96124	
3505	35.040	-92.90575	12.59577	-33.91243	289.44406	133.99718	-51.51337	-94.20815	125.21863	561.90002	270.24139	9.17288	596.15765	164.58548	1122.77075	-375.51648	28.70523	520.71216	-214.85884	186.85770	514.10577	-209.93552	9.81737	546.42487	729.24091	157.81645	534.42780	736.33441	
3506	35.050	-92.89606	12.37945	-33.77789	290.42929	140.26947	-51.42424	-93.88268	132.36647	562.09052	270.35547	9.41356	596.12646	164.65111	1122.39612	-376.40704	28.86941	519.77808	-214.58792	186.57327	513.55316	-210.44556	10.22288	547.28973	729.29663	159.32622	532.01941	733.35938	
3507	35.060	-93.30508	12.79150	-33.96826	292.08560	143.58159	-50.70371	-94.27308	136.97740	562.47693	270.37726	9.84326	595.97791	164.77769	1122.15625	-377.36246	28.52654	519.20178	-215.18147	186.26869	513.11926	-210.92404	10.80563	548.01135	728.49139	160.49007	533.07568	732.79211	
3508	35.070	-93.25265	12.69366	-34.01519	292.76163	143.61473	-49.95381	-95.39739	138.73898	563.07800	270.29276	10.14404	595.73352	164.55424	1121.82227	-378.50137	28.05554	518.96283	-215.79796	186.07639	512.56567	-211.48299	11.88343	548.97083	728.19000	161.13773	533.78271	732.19690	
3509	35.080	-93.32670	12.65682	-34.09871	293.88736	140.65236	-48.75483	-95.96569	137.86128	563.96973	270.31067	10.46739	595.67615	164.11946	1121.42078	-379.46564	27.82166	518.84399	-216.20949	185.80669	512.22729	-212.13560	12.61793	549.58923	728.00500	162.19843	534.50806	732.19537	
3510	35.090	-93.32610	12.69259	-34.19032	293.15488	136.18584	-48.30379	-95.55808	134.82474	565.23169	270.47684	10.82305	595.66144	163.77422	1120.74536	-380.99768	27.39836	518.98260	-216.81038	185.49724	512.18744	-212.76421	13.48077	550.43500	727.18170	162.94772	534.48279	730.03687	
3511	35.100	-92.65567	12.18977	-33.98196	293.00229	130.70056	-47.94413	-94.90907	131.42206	566.42731	270.58987	11.10254	595.46985	163.58191	1120.19031	-382.49841	27.30141	518.87775	-217.24580	185.48460	512.05151	-213.40865	14.29033	550.69580	726.77911	163.44743	534.93311	729.38519	
3512	35.110	-92.57713	12.17904	-33.96296	293.91724	124.72128	-47.72885	-93.81929	126.20560	566.98608	270.72498	11.40617	595.28748	163.42076	1119.50305	-383.84399	27.47222	518.53613	-218.00774	186.22719	511.68771	-214.27078	14.92108	551.44250	726.22937	164.59575	535.44958	728.65161	
3513	35.120	-92.58897	12.09813	-34.07805	293.54041	118.62892	-48.75846	-92.42909	120.02215	567.29645	270.82986	11.66673	594.94672	163.58644	1119.00171	-385.39746	27.63693	518.18579	-218.50304	186.06003	511.61133	-215.29497	15.76334	552.00842	725.34717	165.08025	535.87292	728.06921	
3514	35.130	-92.68530	12.03590	-34.13668	294.98685	112.05683	-49.77093	-91.91424	113.55974	567.00305	270.52951	11.90778	594.91632	163.59457	1118.45911	-386.61203	27.26151	518.01501	-219.44435	186.09610	510.93942	-216.03447	16.85131	552.65430	724.77753	166.38783	536.69733	726.94049	
3515	35.140	-92.73438	11.90598	-34.21783	296.10306	104.93957	-51.20502	-90.94817	106.20644	566.68848	270.89105	12.13620	594.70166	163.77736	1118.08911	-388.02530	27.43554	517.50403	-219.98860	185.37149	510.57385	-216.82124	17.47970	553.15985	723.84900	167.99374	536.92053	725.94049	
3516	35.150	-92.78655	11.82068	-34.29420	296.74316	96.55999	-52.77649	-89.59029	100.46928	564.92847	270.98557	12.35795	594.55029	163.84930	1117.61584	-389.33868	27.49569	517.15308	-220.54019	185.82526	510.08298	-218.08249	18.80519	553.54730	723.12524	167.56197	536.98169	725.34576	
3517	35.160	-92.77518	11.74952	-34.38612	298.06485	88.20155	-53.95242	-88.99868	94.13920	563.46112	271.17358	12.67621	594.32214	164.05016	1117.28027	-390.70953	27.23493	516.88971	-222.04779	185.91519	509.89337	-218.96921	19.61990	553.60474	721.99695	169.80540	537.57874	723.94135	
